<svg width="52" height="52" viewBox="0 0 52 52" fill="none" xmlns="http://www.w3.org/2000/svg">
<path d="M19.8552 49.0308C30.821 49.0308 39.7105 38.0548 39.7105 24.5154C39.7105 10.9759 30.821 0 19.8552 0C8.88949 0 0 10.9759 0 24.5154C0 38.0548 8.88949 49.0308 19.8552 49.0308Z" fill="#68B0AB" fill-opacity="0.3"/>
<path d="M14.7612 41.9631C12.2653 37.9383 10.792 33.0901 10.5277 28.0315C10.2634 22.9729 11.22 17.9312 13.2764 13.5438C15.3328 9.15645 18.3967 5.62053 22.0807 3.3832C25.7646 1.14587 29.9033 0.30763 33.9731 0.974453C38.0429 1.64128 41.8612 3.78323 44.9451 7.12944C48.029 10.4757 50.24 14.8758 51.2985 19.7735C52.357 24.6713 52.2154 29.8466 50.8917 34.645C49.5681 39.4434 47.1217 43.6494 43.8621 46.7311C39.4887 50.8561 33.9687 52.6707 28.5131 51.7769C23.0575 50.883 18.1119 47.3536 14.7612 41.9631V41.9631ZM46.2905 12.155C44.0116 8.48018 40.9014 5.72227 37.3531 4.23004C33.8048 2.73781 29.9777 2.57827 26.3559 3.77156C22.7342 4.96485 19.4803 7.4574 17.0058 10.934C14.5314 14.4106 12.9474 18.7151 12.4543 23.3032C11.9612 27.8913 12.5812 32.5569 14.2356 36.71C15.8901 40.8632 18.5048 44.3172 21.7492 46.6355C24.9935 48.9538 28.7218 50.0321 32.4625 49.7342C36.2033 49.4362 39.7884 47.7754 42.7646 44.9616C46.7508 41.1842 49.3607 35.6088 50.0217 29.4585C50.6827 23.3082 49.3408 17.0853 46.2905 12.155V12.155Z" fill="#808080"/>
</svg>
