<svg width="125" height="182" viewBox="0 0 125 182" fill="none" xmlns="http://www.w3.org/2000/svg">
<path d="M106.453 8.26747C106.449 12.6378 110.425 16.1979 115.332 16.2191C120.24 16.2404 124.221 12.7148 124.225 8.34443C124.229 3.97406 120.253 0.413925 115.346 0.392674C110.438 0.371424 106.457 3.89711 106.453 8.26747Z" fill="#F2F2F2"/>
<path d="M71.0627 8.14931C71.059 12.5197 75.0343 16.0797 79.9419 16.101C84.8494 16.1222 88.8308 12.5966 88.8345 8.22627C88.8382 3.8559 84.8629 0.295761 79.9554 0.27451C75.0478 0.25326 71.0665 3.77895 71.0627 8.14931Z" fill="#F2F2F2"/>
<path d="M35.6715 8.0315C35.6678 12.4019 39.6431 15.9619 44.5506 15.9832C49.4582 16.0044 53.4395 12.4788 53.4433 8.10846C53.447 3.7381 49.4717 0.177963 44.5641 0.156713C39.6566 0.135462 35.6752 3.66114 35.6715 8.0315Z" fill="#F2F2F2"/>
<path d="M0.281169 7.91336C0.277436 12.2837 4.25276 15.8438 9.1603 15.8651C14.0678 15.8863 18.0492 12.3607 18.0529 7.99031C18.0567 3.61995 14.0814 0.0597992 9.17382 0.0385484C4.26628 0.0172976 0.284902 3.54299 0.281169 7.91336Z" fill="#F2F2F2"/>
<path d="M106.401 41.343C106.397 45.7134 110.372 49.2734 115.28 49.2947C120.187 49.3159 124.169 45.7903 124.173 41.42C124.176 37.0496 120.201 33.4895 115.293 33.4682C110.386 33.447 106.404 36.9727 106.401 41.343Z" fill="#F2F2F2"/>
<path d="M71.0101 41.2251C71.0063 45.5955 74.9816 49.1555 79.8892 49.1768C84.7967 49.198 88.7781 45.6724 88.7818 41.3021C88.7855 36.9317 84.8102 33.3716 79.9027 33.3503C74.9952 33.3291 71.0138 36.8547 71.0101 41.2251Z" fill="#F2F2F2"/>
<path d="M35.6194 41.1069C35.6157 45.4773 39.591 49.0373 44.4986 49.0586C49.4061 49.0798 53.3875 45.5542 53.3912 41.1839C53.3949 36.8135 49.4196 33.2534 44.5121 33.2322C39.6045 33.2109 35.6232 36.7366 35.6194 41.1069Z" fill="#F2F2F2"/>
<path d="M0.228438 40.9889C0.224706 45.3592 4.20003 48.9193 9.10756 48.9405C14.0151 48.9618 17.9965 45.4362 18.0002 41.0658C18.0039 36.6955 14.0286 33.1354 9.12108 33.1141C4.21355 33.0929 0.232171 36.6185 0.228438 40.9889Z" fill="#F2F2F2"/>
<path d="M106.348 74.4186C106.344 78.7889 110.32 82.349 115.227 82.3703C120.135 82.3915 124.116 78.8659 124.12 74.4955C124.124 70.1252 120.148 66.565 115.241 66.5438C110.333 66.5225 106.352 70.0482 106.348 74.4186Z" fill="#F2F2F2"/>
<path d="M70.9574 74.3006C70.9537 78.671 74.929 82.2311 79.8365 82.2523C84.744 82.2736 88.7254 78.748 88.7291 74.3776C88.7329 70.0073 84.7576 66.4471 79.85 66.4259C74.9425 66.4046 70.9611 69.9303 70.9574 74.3006Z" fill="#F2F2F2"/>
<path d="M35.5668 74.1825C35.563 78.5529 39.5383 82.1129 44.4459 82.1342C49.3534 82.1554 53.3348 78.6298 53.3385 74.2595C53.3422 69.8891 49.3669 66.329 44.4594 66.3077C39.5519 66.2865 35.5705 69.8121 35.5668 74.1825Z" fill="#F2F2F2"/>
<path d="M0.176131 74.0643C0.172398 78.4347 4.14772 81.9948 9.05526 82.016C13.9628 82.0373 17.9442 78.5116 17.9479 74.1413C17.9516 69.7709 13.9763 66.2108 9.06878 66.1895C4.16124 66.1683 0.179864 69.694 0.176131 74.0643Z" fill="#F2F2F2"/>
<path d="M106.296 107.494C106.292 111.865 110.267 115.425 115.175 115.446C120.082 115.467 124.064 111.941 124.067 107.571C124.071 103.201 120.096 99.6406 115.188 99.6194C110.281 99.5981 106.299 103.124 106.296 107.494Z" fill="#F2F2F2"/>
<path d="M70.905 107.376C70.9013 111.746 74.8766 115.306 79.7841 115.328C84.6917 115.349 88.673 111.823 88.6768 107.453C88.6805 103.083 84.7052 99.5226 79.7977 99.5013C74.8901 99.4801 70.9088 103.006 70.905 107.376Z" fill="#F2F2F2"/>
<path d="M35.5141 107.258C35.5104 111.628 39.4857 115.188 44.3932 115.21C49.3007 115.231 53.2821 111.705 53.2858 107.335C53.2896 102.965 49.3143 99.4044 44.4067 99.3832C39.4992 99.3619 35.5178 102.888 35.5141 107.258Z" fill="#F2F2F2"/>
<path d="M0.123761 107.14C0.120028 111.511 4.09535 115.071 9.00289 115.092C13.9104 115.113 17.8918 111.587 17.8955 107.217C17.8993 102.847 13.9239 99.2866 9.01641 99.2654C4.10887 99.2441 0.127494 102.77 0.123761 107.14Z" fill="#F2F2F2"/>
<path d="M106.243 140.57C106.239 144.94 110.215 148.5 115.122 148.521C120.03 148.543 124.011 145.017 124.015 140.647C124.019 136.276 120.043 132.716 115.136 132.695C110.228 132.674 106.247 136.199 106.243 140.57Z" fill="#F2F2F2"/>
<path d="M70.8527 140.452C70.8489 144.822 74.8242 148.382 79.7318 148.403C84.6393 148.425 88.6207 144.899 88.6244 140.529C88.6281 136.158 84.6528 132.598 79.7453 132.577C74.8378 132.556 70.8564 136.081 70.8527 140.452Z" fill="#F2F2F2"/>
<path d="M35.4617 140.334C35.458 144.704 39.4333 148.264 44.3408 148.285C49.2484 148.307 53.2297 144.781 53.2335 140.411C53.2372 136.04 49.2619 132.48 44.3544 132.459C39.4468 132.438 35.4655 135.963 35.4617 140.334Z" fill="#F2F2F2"/>
<path d="M0.0710859 140.216C0.0673531 144.586 4.04268 148.146 8.95022 148.167C13.8578 148.189 17.8391 144.663 17.8429 140.293C17.8466 135.922 13.8713 132.362 8.96373 132.341C4.0562 132.32 0.0748187 135.845 0.0710859 140.216Z" fill="#F2F2F2"/>
<path d="M106.191 173.645C106.187 178.016 110.162 181.576 115.07 181.597C119.977 181.618 123.959 178.093 123.962 173.722C123.966 169.352 119.991 165.792 115.083 165.77C110.176 165.749 106.194 169.275 106.191 173.645Z" fill="#F2F2F2"/>
<path d="M70.8 173.527C70.7962 177.897 74.7716 181.457 79.6791 181.479C84.5866 181.5 88.568 177.974 88.5717 173.604C88.5755 169.234 84.6001 165.674 79.6926 165.652C74.7851 165.631 70.8037 169.157 70.8 173.527Z" fill="#F2F2F2"/>
<path d="M35.409 173.409C35.4053 177.78 39.3806 181.34 44.2882 181.361C49.1957 181.382 53.1771 177.857 53.1808 173.486C53.1845 169.116 49.2092 165.556 44.3017 165.535C39.3941 165.513 35.4128 169.039 35.409 173.409Z" fill="#F2F2F2"/>
<path d="M0.0186605 173.291C0.0149277 177.662 3.99025 181.222 8.89779 181.243C13.8053 181.264 17.7867 177.739 17.7904 173.368C17.7942 168.998 13.8188 165.438 8.9113 165.416C4.00377 165.395 0.0223933 168.921 0.0186605 173.291Z" fill="#F2F2F2"/>
</svg>
