<svg width="186" height="132" viewBox="0 0 186 132" fill="none" xmlns="http://www.w3.org/2000/svg">
<path d="M8.84077 20.5392C13.2878 20.4624 16.8777 16.2782 16.859 11.1937C16.8403 6.10915 13.2201 2.04962 8.77307 2.12647C4.32603 2.20332 0.736103 6.38746 0.754799 11.472C0.773494 16.5565 4.39373 20.6161 8.84077 20.5392Z" fill="#F2F2F2"/>
<path d="M9.03517 57.3582C13.4823 57.2813 17.0721 53.0972 17.0534 48.0127C17.0347 42.9282 13.4145 38.8687 8.96747 38.9456C4.52039 39.0224 0.930439 43.2065 0.949135 48.291C0.967831 53.3755 4.58809 57.435 9.03517 57.3582Z" fill="#F2F2F2"/>
<path d="M9.22945 94.1781C13.6765 94.1013 17.2663 89.9173 17.2476 84.8329C17.2289 79.7485 13.6088 75.689 9.16174 75.7659C4.7147 75.8427 1.12477 80.0268 1.14347 85.1112C1.16217 90.1956 4.7824 94.255 9.22945 94.1781Z" fill="#F2F2F2"/>
<path d="M9.42378 130.997C13.8708 130.92 17.4607 126.736 17.442 121.652C17.4233 116.567 13.8031 112.507 9.35608 112.584C4.90903 112.661 1.31911 116.845 1.33781 121.93C1.3565 127.014 4.97674 131.074 9.42378 130.997Z" fill="#F2F2F2"/>
<path d="M42.4811 20.1491C46.9282 20.0725 50.5181 15.8886 50.4994 10.8041C50.4806 5.71964 46.8603 1.65995 42.4132 1.73655C37.966 1.81315 34.376 5.99703 34.3948 11.0815C34.4135 16.166 38.0339 20.2257 42.4811 20.1491Z" fill="#F2F2F2"/>
<path d="M42.6759 56.9683C47.1231 56.8917 50.7129 52.7078 50.6942 47.6233C50.6754 42.5388 47.0552 38.479 42.608 38.5556C38.1608 38.6322 34.5709 42.8162 34.5896 47.9007C34.6084 52.9852 38.2287 57.0449 42.6759 56.9683Z" fill="#F2F2F2"/>
<path d="M42.8699 93.7878C47.317 93.7112 50.9068 89.5273 50.888 84.4429C50.8693 79.3585 47.2491 75.2989 42.802 75.3755C38.3549 75.4521 34.765 79.6359 34.7837 84.7203C34.8025 89.8047 38.4228 93.8644 42.8699 93.7878Z" fill="#F2F2F2"/>
<path d="M43.0641 130.608C47.5111 130.531 51.1009 126.347 51.0821 121.262C51.0634 116.178 47.4432 112.118 42.9962 112.195C38.5492 112.271 34.9593 116.455 34.978 121.54C34.9968 126.624 38.6171 130.684 43.0641 130.608Z" fill="#F2F2F2"/>
<path d="M76.1213 19.7593C80.5684 19.6827 84.1583 15.4989 84.1395 10.4144C84.1208 5.32997 80.5005 1.2703 76.0534 1.3469C71.6063 1.4235 68.0164 5.60736 68.0352 10.6918C68.0539 15.7763 71.6742 19.8359 76.1213 19.7593Z" fill="#F2F2F2"/>
<path d="M76.3156 56.5789C80.7627 56.5023 84.3525 52.3183 84.3337 47.2337C84.315 42.1492 80.6948 38.0894 76.2477 38.166C71.8006 38.2426 68.2108 42.4266 68.2295 47.5111C68.2483 52.5957 71.8685 56.6555 76.3156 56.5789Z" fill="#F2F2F2"/>
<path d="M76.5099 93.3982C80.957 93.3216 84.5468 89.1377 84.5281 84.0532C84.5093 78.9687 80.8891 74.909 76.442 74.9856C71.995 75.0622 68.4051 79.2461 68.4238 84.3306C68.4426 89.4151 72.0629 93.4748 76.5099 93.3982Z" fill="#F2F2F2"/>
<path d="M76.704 130.217C81.1511 130.141 84.7409 125.957 84.7222 120.872C84.7034 115.788 81.0832 111.728 76.6361 111.805C72.1891 111.881 68.5992 116.065 68.6179 121.15C68.6367 126.234 72.257 130.294 76.704 130.217Z" fill="#F2F2F2"/>
<path d="M109.761 19.3696C114.209 19.293 117.798 15.109 117.78 10.0245C117.761 4.93991 114.141 0.880162 109.693 0.956762C105.246 1.03336 101.656 5.2173 101.675 10.3019C101.694 15.3864 105.314 19.4462 109.761 19.3696Z" fill="#F2F2F2"/>
<path d="M109.956 56.1886C114.403 56.112 117.992 51.9281 117.974 46.8435C117.955 41.759 114.335 37.6993 109.888 37.7759C105.441 37.8525 101.851 42.0364 101.869 47.1209C101.888 52.2055 105.508 56.2652 109.956 56.1886Z" fill="#F2F2F2"/>
<path d="M110.15 93.0085C114.597 92.9319 118.187 88.7479 118.168 83.6634C118.149 78.5788 114.529 74.5191 110.082 74.5957C105.635 74.6723 102.045 78.8562 102.063 83.9408C102.082 89.0253 105.703 93.0851 110.15 93.0085Z" fill="#F2F2F2"/>
<path d="M110.344 129.827C114.791 129.751 118.381 125.567 118.363 120.482C118.344 115.398 114.724 111.338 110.277 111.415C105.829 111.491 102.24 115.675 102.258 120.76C102.277 125.844 105.897 129.904 110.344 129.827Z" fill="#F2F2F2"/>
<path d="M143.401 18.9794C147.849 18.9028 151.438 14.7189 151.42 9.63445C151.401 4.54996 147.781 0.490271 143.334 0.56687C138.886 0.64347 135.296 4.82736 135.315 9.91184C135.334 14.9963 138.954 19.056 143.401 18.9794Z" fill="#F2F2F2"/>
<path d="M143.596 55.7988C148.043 55.7222 151.633 51.5383 151.614 46.4538C151.595 41.3693 147.975 37.3096 143.528 37.3862C139.081 37.4628 135.491 41.6467 135.51 46.7312C135.528 51.8157 139.149 55.8754 143.596 55.7988Z" fill="#F2F2F2"/>
<path d="M143.79 92.6183C148.237 92.5417 151.827 88.3579 151.808 83.2734C151.789 78.1889 148.169 74.1292 143.722 74.2058C139.275 74.2824 135.685 78.4663 135.703 83.5508C135.722 88.6352 139.343 92.6949 143.79 92.6183Z" fill="#F2F2F2"/>
<path d="M143.985 129.438C148.432 129.361 152.022 125.177 152.003 120.093C151.984 115.008 148.364 110.948 143.917 111.025C139.47 111.101 135.88 115.285 135.898 120.37C135.917 125.454 139.538 129.514 143.985 129.438Z" fill="#F2F2F2"/>
<path d="M177.041 18.5891C181.488 18.5125 185.078 14.3287 185.059 9.24433C185.041 4.15997 181.42 0.100384 176.973 0.176982C172.526 0.253579 168.937 4.43736 168.955 9.52171C168.974 14.6061 172.594 18.6656 177.041 18.5891Z" fill="#F2F2F2"/>
<path d="M177.235 55.4089C181.682 55.3323 185.272 51.1484 185.254 46.064C185.235 40.9796 181.615 36.92 177.168 36.9966C172.721 37.0732 169.131 41.257 169.149 46.3414C169.168 51.4258 172.788 55.4855 177.235 55.4089Z" fill="#F2F2F2"/>
<path d="M177.43 92.2287C181.877 92.1521 185.467 87.9682 185.448 82.8837C185.429 77.7992 181.809 73.7395 177.362 73.8161C172.915 73.8927 169.325 78.0766 169.344 83.1611C169.363 88.2456 172.983 92.3053 177.43 92.2287Z" fill="#F2F2F2"/>
<path d="M177.624 129.048C182.071 128.971 185.661 124.787 185.642 119.703C185.624 114.618 182.003 110.558 177.556 110.635C173.109 110.712 169.519 114.895 169.538 119.98C169.557 125.065 173.177 129.124 177.624 129.048Z" fill="#F2F2F2"/>
</svg>
