<svg width="44" height="40" viewBox="0 0 44 40" fill="none" xmlns="http://www.w3.org/2000/svg">
<path d="M3.69927 3.9994C7.48988 -2.0643 35.1063 -0.548366 40.5214 3.9994C45.9365 8.54717 44.312 32.8021 40.5214 36.3393C36.7308 39.8765 9.65588 42.4031 3.69927 36.3393C-2.25734 30.2755 -0.0913319 10.0631 3.69927 3.9994Z" fill="#BC3A80" fill-opacity="0.9"/>
<path d="M23.42 14.96L18.44 29H14.16L9.18 14.96H12.82L16.3 25.56L19.8 14.96H23.42ZM35.5494 19.48C35.5494 20.2933 35.3627 21.04 34.9894 21.72C34.616 22.3867 34.0427 22.9267 33.2694 23.34C32.496 23.7533 31.536 23.96 30.3894 23.96H28.2694V29H24.8494V14.96H30.3894C31.5094 14.96 32.456 15.1533 33.2294 15.54C34.0027 15.9267 34.5827 16.46 34.9694 17.14C35.356 17.82 35.5494 18.6 35.5494 19.48ZM30.1294 21.24C30.7827 21.24 31.2694 21.0867 31.5894 20.78C31.9094 20.4733 32.0694 20.04 32.0694 19.48C32.0694 18.92 31.9094 18.4867 31.5894 18.18C31.2694 17.8733 30.7827 17.72 30.1294 17.72H28.2694V21.24H30.1294Z" fill="white"/>
</svg>
